classDiagram
direction LR

%% Productos
class Producto {
    +int IdProducto
    +string Nombre
    +string Descripcion
    +float Precio
    +bool Activo
    +int Stock
}

%% Categorías
class Categoria {
    +int IdCategoria
    +string Nombre
    +string Descripcion
    +bool Activo
}

%% Usuarios
class Usuario {
    +int IdUsuario
    +string Nombre
    +string Correo
    +string Contraseña
    +string Activo
}

%% Pedidos
class Pedido {
    +int IdPedido
    +date Fecha
    +float Total
    +string Estado
}

%% Detalles del Pedido
class DetallePedido {
    +int IdDetallePedido
    +int IdPedido_FK
    +int IdProducto_FK
    +int Cantidad
    +float PrecioUnitario
}

%% Carrito de Compras
class Carrito {
    +int IdCarrito
    +int IdUsuario_FK
}

%% Items del Carrito
class ItemCarrito {
    +int IdItemCarrito
    +int IdCarrito_FK
    +int IdProducto_FK
    +int Cantidad
}

%% Relaciones
Producto "0" --> "1..*" Categoria : pertenece_a
Pedido "1" --> "0..*" DetallePedido : contiene
Producto "1" --> "0..*" DetallePedido : incluido_en
Usuario "1" --> "0..*" Pedido : realiza
Usuario "1" --> "0..1" Carrito : posee
Carrito "1" --> "0..*" ItemCarrito : contiene
Producto "1" --> "0..*" ItemCarrito : agregado_a